<?xml version="1.0" encoding="utf-8"?>
<svg version="1.1" xmlns:xlink="http://www.w3.org/1999/xlink" width="12px" height="12px" viewBox="1318 942  12 12" xmlns="http://www.w3.org/2000/svg">
  <path d="M 1324 942  C 1327.36 942  1330 944.64  1330 948  C 1330 951.36  1327.36 954  1324 954  C 1320.64 954  1318 951.36  1318 948  C 1318 944.64  1320.64 942  1324 942  Z " fill-rule="nonzero" fill="#f0f0f0" stroke="none" />
  <path d="M 1324 942.5  C 1327.08 942.5  1329.5 944.92  1329.5 948  C 1329.5 951.08  1327.08 953.5  1324 953.5  C 1320.92 953.5  1318.5 951.08  1318.5 948  C 1318.5 944.92  1320.92 942.5  1324 942.5  Z " stroke-width="1" stroke="#797979" fill="none" />
  <path d="M 1324 951  C 1322.32 951  1321 949.68  1321 948  C 1321 946.32  1322.32 945  1324 945  C 1325.68 945  1327 946.32  1327 948  C 1327 949.68  1325.68 951  1324 951  " fill-rule="nonzero" fill="#797979" stroke="none" />
</svg>