<?xml version="1.0" encoding="utf-8"?>
<svg version="1.1" xmlns:xlink="http://www.w3.org/1999/xlink" width="20px" height="13px" xmlns="http://www.w3.org/2000/svg">
  <g transform="matrix(1 0 0 1 -1457 -1307 )">
    <path d="M 7.9045996592845 10.2795758928571  C 7.97274275979557 10.3231026785714  8.00681431005111 10.3787202380952  8.00681431005111 10.4464285714286  C 8.00681431005111 10.5044642857143  7.9689570319894 10.5625  7.89324247586598 10.6205357142857  L 4.27030096536059 12.9347098214286  C 4.19458640923718 12.9782366071429  4.10751466969525 13  4.00908574673481 13  C 3.91822827938671 13  3.83115653984479 12.9782366071429  3.74787052810903 12.9347098214286  L 0.113571834185122 10.61328125  C 0 10.535900297619  -0.0265000946431951 10.4512648809524  0.0340715502555366 10.359375  C 0.0946431951542684 10.2626488095238  0.208215029339391 10.2142857142857  0.374787052810903 10.2142857142857  L 2.55536626916525 10.2142857142857  L 2.55536626916525 0.232142857142858  C 2.55536626916525 0.164434523809523  2.58943781942078 0.108816964285714  2.65758091993186 0.0652901785714282  C 2.72572402044293 0.0217633928571422  2.81279575998486 0  2.91879613855764 0  L 5.09937535491198 0  C 5.20537573348476 0  5.29244747302669 0.0217633928571422  5.36059057353776 0.0652901785714282  C 5.42873367404884 0.108816964285714  5.46280522430437 0.164434523809523  5.46280522430437 0.232142857142858  L 5.46280522430437 10.2142857142857  L 7.64338444065872 10.2142857142857  C 7.7493848192315 10.2142857142857  7.83645655877342 10.2360491071429  7.9045996592845 10.2795758928571  Z M 19.8977853492334 11.2081473214286  C 19.9659284497445 11.2516741071429  20 11.3072916666667  20 11.375  L 20 12.7678571428571  C 20 12.8355654761905  19.9659284497445 12.8911830357143  19.8977853492334 12.9347098214286  C 19.8296422487223 12.9782366071429  19.7425705091804 13  19.6365701306076 13  L 10.1873935264055 13  C 10.0813931478327 13  9.99432140829074 12.9782366071429  9.92617830777967 12.9347098214286  C 9.8580352072686 12.8911830357143  9.82396365701306 12.8355654761905  9.82396365701306 12.7678571428571  L 9.82396365701306 11.375  C 9.82396365701306 11.3072916666667  9.8580352072686 11.2516741071429  9.92617830777967 11.2081473214286  C 9.99432140829074 11.1646205357143  10.0813931478327 11.1428571428571  10.1873935264055 11.1428571428571  L 19.6365701306076 11.1428571428571  C 19.7425705091804 11.1428571428571  19.8296422487223 11.1646205357143  19.8977853492334 11.2081473214286  Z M 17.717206132879 7.49386160714286  C 17.7853492333901 7.53738839285714  17.8194207836457 7.59300595238095  17.8194207836457 7.66071428571429  L 17.8194207836457 9.05357142857143  C 17.8194207836457 9.12127976190476  17.7853492333901 9.17689732142857  17.717206132879 9.22042410714286  C 17.649063032368 9.26395089285714  17.561991292826 9.28571428571429  17.4559909142533 9.28571428571429  L 10.1873935264055 9.28571428571429  C 10.0813931478327 9.28571428571429  9.99432140829074 9.26395089285714  9.92617830777967 9.22042410714286  C 9.8580352072686 9.17689732142857  9.82396365701306 9.12127976190476  9.82396365701306 9.05357142857143  L 9.82396365701306 7.66071428571429  C 9.82396365701306 7.59300595238095  9.8580352072686 7.53738839285714  9.92617830777967 7.49386160714286  C 9.99432140829074 7.45033482142857  10.0813931478327 7.42857142857143  10.1873935264055 7.42857142857143  L 17.4559909142533 7.42857142857143  C 17.561991292826 7.42857142857143  17.649063032368 7.45033482142857  17.717206132879 7.49386160714286  Z M 15.5366269165247 3.77957589285714  C 15.6047700170358 3.82310267857143  15.6388415672913 3.87872023809524  15.6388415672913 3.94642857142857  L 15.6388415672913 5.33928571428571  C 15.6388415672913 5.40699404761905  15.6047700170358 5.46261160714286  15.5366269165247 5.50613839285714  C 15.4684838160136 5.54966517857143  15.3814120764717 5.57142857142857  15.2754116978989 5.57142857142857  L 10.1873935264055 5.57142857142857  C 10.0813931478327 5.57142857142857  9.99432140829074 5.54966517857143  9.92617830777967 5.50613839285714  C 9.8580352072686 5.46261160714286  9.82396365701306 5.40699404761905  9.82396365701306 5.33928571428571  L 9.82396365701306 3.94642857142857  C 9.82396365701306 3.87872023809524  9.8580352072686 3.82310267857143  9.92617830777967 3.77957589285714  C 9.99432140829074 3.73604910714286  10.0813931478327 3.71428571428571  10.1873935264055 3.71428571428571  L 15.2754116978989 3.71428571428571  C 15.3814120764717 3.71428571428571  15.4684838160136 3.73604910714286  15.5366269165247 3.77957589285714  Z M 13.3560477001704 0.0652901785714282  C 13.4241908006814 0.108816964285714  13.458262350937 0.164434523809523  13.458262350937 0.232142857142858  L 13.458262350937 1.625  C 13.458262350937 1.69270833333333  13.4241908006814 1.74832589285714  13.3560477001704 1.79185267857143  C 13.2879045996593 1.83537946428571  13.2008328601174 1.85714285714286  13.0948324815446 1.85714285714286  L 10.1873935264055 1.85714285714286  C 10.0813931478327 1.85714285714286  9.99432140829074 1.83537946428571  9.92617830777967 1.79185267857143  C 9.8580352072686 1.74832589285714  9.82396365701306 1.69270833333333  9.82396365701306 1.625  L 9.82396365701306 0.232142857142858  C 9.82396365701306 0.164434523809523  9.8580352072686 0.108816964285714  9.92617830777967 0.0652901785714282  C 9.99432140829074 0.0217633928571422  10.0813931478327 0  10.1873935264055 0  L 13.0948324815446 0  C 13.2008328601174 0  13.2879045996593 0.0217633928571422  13.3560477001704 0.0652901785714282  Z " fill-rule="nonzero" fill="#000000" stroke="none" transform="matrix(1 0 0 1 1457 1307 )" />
  </g>
</svg>