<?xml version="1.0" encoding="utf-8"?>
<svg version="1.1" xmlns:xlink="http://www.w3.org/1999/xlink" width="12px" height="12px" viewBox="1318 903  12 12" xmlns="http://www.w3.org/2000/svg">
  <path d="M 1324 903  C 1327.36 903  1330 905.64  1330 909  C 1330 912.36  1327.36 915  1324 915  C 1320.64 915  1318 912.36  1318 909  C 1318 905.64  1320.64 903  1324 903  Z " fill-rule="nonzero" fill="#ffffff" stroke="none" />
  <path d="M 1324 903.5  C 1327.08 903.5  1329.5 905.92  1329.5 909  C 1329.5 912.08  1327.08 914.5  1324 914.5  C 1320.92 914.5  1318.5 912.08  1318.5 909  C 1318.5 905.92  1320.92 903.5  1324 903.5  Z " stroke-width="1" stroke="#797979" fill="none" />
  <path d="M 1324 912  C 1322.32 912  1321 910.68  1321 909  C 1321 907.32  1322.32 906  1324 906  C 1325.68 906  1327 907.32  1327 909  C 1327 910.68  1325.68 912  1324 912  " fill-rule="nonzero" fill="#797979" stroke="none" />
</svg>