<?xml version="1.0" encoding="utf-8"?>
<svg version="1.1" xmlns:xlink="http://www.w3.org/1999/xlink" width="18px" height="18px" preserveAspectRatio="xMinYMid meet" viewBox="1786 1103  18 16" xmlns="http://www.w3.org/2000/svg">
  <path d="M 1791.5 1045  L 1791.5 1076  A 2 2 0 0 0 1793.5 1078.5 A 2 2 0 0 1 1795.5 1080.5 L 1795.5 1111  " stroke-width="1" stroke-dasharray="3,1" stroke="#996600" fill="none" />
  <path d="M 1791.5 1044  A 3 3 0 0 0 1788.5 1047 A 3 3 0 0 0 1791.5 1050 A 3 3 0 0 0 1794.5 1047 A 3 3 0 0 0 1791.5 1044 Z M 1800.14644660941 1105.94644660941  L 1795.5 1110.59289321881  L 1790.85355339059 1105.94644660941  L 1790.14644660941 1106.65355339059  L 1795.14644660941 1111.65355339059  L 1795.5 1112.00710678119  L 1795.85355339059 1111.65355339059  L 1800.85355339059 1106.65355339059  L 1800.14644660941 1105.94644660941  Z " fill-rule="nonzero" fill="#996600" stroke="none" />
</svg>