<?xml version="1.0" encoding="utf-8"?>
<svg version="1.1" xmlns:xlink="http://www.w3.org/1999/xlink" width="12px" height="12px" viewBox="1530 581  12 12" xmlns="http://www.w3.org/2000/svg">
  <path d="M 1536 581  C 1539.36 581  1542 583.64  1542 587  C 1542 590.36  1539.36 593  1536 593  C 1532.64 593  1530 590.36  1530 587  C 1530 583.64  1532.64 581  1536 581  Z " fill-rule="nonzero" fill="#f0f0f0" stroke="none" />
  <path d="M 1536 581.5  C 1539.08 581.5  1541.5 583.92  1541.5 587  C 1541.5 590.08  1539.08 592.5  1536 592.5  C 1532.92 592.5  1530.5 590.08  1530.5 587  C 1530.5 583.92  1532.92 581.5  1536 581.5  Z " stroke-width="1" stroke="#797979" fill="none" />
  <path d="M 1536 590  C 1534.32 590  1533 588.68  1533 587  C 1533 585.32  1534.32 584  1536 584  C 1537.68 584  1539 585.32  1539 587  C 1539 588.68  1537.68 590  1536 590  " fill-rule="nonzero" fill="#797979" stroke="none" />
</svg>