<?xml version="1.0" encoding="utf-8"?>
<svg version="1.1" xmlns:xlink="http://www.w3.org/1999/xlink" width="12px" height="12px" viewBox="1572 581  12 12" xmlns="http://www.w3.org/2000/svg">
  <path d="M 1578 581  C 1581.36 581  1584 583.64  1584 587  C 1584 590.36  1581.36 593  1578 593  C 1574.64 593  1572 590.36  1572 587  C 1572 583.64  1574.64 581  1578 581  Z " fill-rule="nonzero" fill="#f0f0f0" stroke="none" />
  <path d="M 1578 581.5  C 1581.08 581.5  1583.5 583.92  1583.5 587  C 1583.5 590.08  1581.08 592.5  1578 592.5  C 1574.92 592.5  1572.5 590.08  1572.5 587  C 1572.5 583.92  1574.92 581.5  1578 581.5  Z " stroke-width="1" stroke="#797979" fill="none" />
  <path d="M 1578 590  C 1576.32 590  1575 588.68  1575 587  C 1575 585.32  1576.32 584  1578 584  C 1579.68 584  1581 585.32  1581 587  C 1581 588.68  1579.68 590  1578 590  " fill-rule="nonzero" fill="#797979" stroke="none" />
</svg>