<?xml version="1.0" encoding="utf-8"?>
<svg version="1.1" xmlns:xlink="http://www.w3.org/1999/xlink" width="12px" height="12px" viewBox="1863 656  12 12" xmlns="http://www.w3.org/2000/svg">
  <path d="M 1869 656  C 1872.36 656  1875 658.64  1875 662  C 1875 665.36  1872.36 668  1869 668  C 1865.64 668  1863 665.36  1863 662  C 1863 658.64  1865.64 656  1869 656  Z " fill-rule="nonzero" fill="#ffffff" stroke="none" />
  <path d="M 1869 656.5  C 1872.08 656.5  1874.5 658.92  1874.5 662  C 1874.5 665.08  1872.08 667.5  1869 667.5  C 1865.92 667.5  1863.5 665.08  1863.5 662  C 1863.5 658.92  1865.92 656.5  1869 656.5  Z " stroke-width="1" stroke="#797979" fill="none" />
  <path d="M 1869 665  C 1867.32 665  1866 663.68  1866 662  C 1866 660.32  1867.32 659  1869 659  C 1870.68 659  1872 660.32  1872 662  C 1872 663.68  1870.68 665  1869 665  " fill-rule="nonzero" fill="#797979" stroke="none" />
</svg>