<?xml version="1.0" encoding="utf-8"?>
<svg version="1.1" xmlns:xlink="http://www.w3.org/1999/xlink" width="12px" height="12px" viewBox="1821 656  12 12" xmlns="http://www.w3.org/2000/svg">
  <path d="M 1827 656  C 1830.36 656  1833 658.64  1833 662  C 1833 665.36  1830.36 668  1827 668  C 1823.64 668  1821 665.36  1821 662  C 1821 658.64  1823.64 656  1827 656  Z " fill-rule="nonzero" fill="#ffffff" stroke="none" />
  <path d="M 1827 656.5  C 1830.08 656.5  1832.5 658.92  1832.5 662  C 1832.5 665.08  1830.08 667.5  1827 667.5  C 1823.92 667.5  1821.5 665.08  1821.5 662  C 1821.5 658.92  1823.92 656.5  1827 656.5  Z " stroke-width="1" stroke="#797979" fill="none" />
  <path d="M 1827 665  C 1825.32 665  1824 663.68  1824 662  C 1824 660.32  1825.32 659  1827 659  C 1828.68 659  1830 660.32  1830 662  C 1830 663.68  1828.68 665  1827 665  " fill-rule="nonzero" fill="#797979" stroke="none" />
</svg>