<?xml version="1.0" encoding="utf-8"?>
<svg version="1.1" xmlns:xlink="http://www.w3.org/1999/xlink" width="10px" height="9px" preserveAspectRatio="xMinYMid meet" viewBox="2188 532  10 7" xmlns="http://www.w3.org/2000/svg">
  <path d="M 2193.62435031316 539.510384162982  A 4 4 0 0 1 2197.5 536.5 L 2290 536.5  A 5 5 0 0 0 2295.5 531.5 L 2295.5 501  A 5 5 0 0 1 2300.5 496.5 L 2371 496.5  " stroke-width="1" stroke-dasharray="3,1" stroke="#996600" fill="none" />
  <path d="M 2194.5732445245 534.773444959907  A 3 3 0 0 0 2191.5732445245 537.773444959907 A 3 3 0 0 0 2194.5732445245 540.773444959907 A 3 3 0 0 0 2197.5732445245 537.773444959907 A 3 3 0 0 0 2194.5732445245 534.773444959907 Z " fill-rule="nonzero" fill="#996600" stroke="none" />
</svg>