<?xml version="1.0" encoding="utf-8"?>
<svg version="1.1" xmlns:xlink="http://www.w3.org/1999/xlink" width="13px" height="13px" xmlns="http://www.w3.org/2000/svg">
  <g transform="matrix(1 0 0 1 -111 -282 )">
    <path d="M 5.13798977853492 10.2795758928571  C 5.18228279386712 10.3231026785714  5.20442930153322 10.3787202380952  5.20442930153322 10.4464285714286  C 5.20442930153322 10.5044642857143  5.17982207079311 10.5625  5.13060760931289 10.6205357142857  L 2.77569562748438 12.9347098214286  C 2.72648116600416 12.9782366071429  2.66988453530191 13  2.60590573537763 13  C 2.54684838160136 13  2.49025175089911 12.9782366071429  2.43611584327087 12.9347098214286  L 0.0738216922203294 10.61328125  C 0 10.535900297619  -0.0172250615180768 10.4512648809524  0.0221465076660988 10.359375  C 0.0615180768502745 10.2626488095238  0.135339769070604 10.2142857142857  0.243611584327087 10.2142857142857  L 1.66098807495741 10.2142857142857  L 1.66098807495741 0.232142857142858  C 1.66098807495741 0.164434523809523  1.68313458262351 0.108816964285714  1.72742759795571 0.0652901785714282  C 1.7717206132879 0.0217633928571422  1.82831724399016 0  1.89721749006246 0  L 3.31459398069279 0  C 3.3834942267651 0  3.44009085746735 0.0217633928571422  3.48438387279955 0.0652901785714282  C 3.52867688813174 0.108816964285714  3.55082339579784 0.164434523809523  3.55082339579784 0.232142857142858  L 3.55082339579784 10.2142857142857  L 4.96819988642817 10.2142857142857  C 5.03710013250047 10.2142857142857  5.09369676320273 10.2360491071429  5.13798977853492 10.2795758928571  Z M 12.9335604770017 11.2081473214286  C 12.9778534923339 11.2516741071429  13 11.3072916666667  13 11.375  L 13 12.7678571428571  C 13 12.8355654761905  12.9778534923339 12.8911830357143  12.9335604770017 12.9347098214286  C 12.8892674616695 12.9782366071429  12.8326708309673 13  12.7637705848949 13  L 6.62180579216354 13  C 6.55290554609124 13  6.49630891538898 12.9782366071429  6.45201590005679 12.9347098214286  C 6.40772288472459 12.8911830357143  6.38557637705849 12.8355654761905  6.38557637705849 12.7678571428571  L 6.38557637705849 11.375  C 6.38557637705849 11.3072916666667  6.40772288472459 11.2516741071429  6.45201590005679 11.2081473214286  C 6.49630891538898 11.1646205357143  6.55290554609124 11.1428571428571  6.62180579216354 11.1428571428571  L 12.7637705848949 11.1428571428571  C 12.8326708309673 11.1428571428571  12.8892674616695 11.1646205357143  12.9335604770017 11.2081473214286  Z M 11.5161839863714 7.49386160714286  C 11.5604770017036 7.53738839285714  11.5826235093697 7.59300595238095  11.5826235093697 7.66071428571429  L 11.5826235093697 9.05357142857143  C 11.5826235093697 9.12127976190476  11.5604770017036 9.17689732142857  11.5161839863714 9.22042410714286  C 11.4718909710392 9.26395089285714  11.4152943403369 9.28571428571429  11.3463940942646 9.28571428571429  L 6.62180579216354 9.28571428571429  C 6.55290554609124 9.28571428571429  6.49630891538898 9.26395089285714  6.45201590005679 9.22042410714286  C 6.40772288472459 9.17689732142857  6.38557637705849 9.12127976190476  6.38557637705849 9.05357142857143  L 6.38557637705849 7.66071428571429  C 6.38557637705849 7.59300595238095  6.40772288472459 7.53738839285714  6.45201590005679 7.49386160714286  C 6.49630891538898 7.45033482142857  6.55290554609124 7.42857142857143  6.62180579216354 7.42857142857143  L 11.3463940942646 7.42857142857143  C 11.4152943403369 7.42857142857143  11.4718909710392 7.45033482142857  11.5161839863714 7.49386160714286  Z M 10.0988074957411 3.77957589285714  C 10.1431005110733 3.82310267857143  10.1652470187394 3.87872023809524  10.1652470187394 3.94642857142857  L 10.1652470187394 5.33928571428571  C 10.1652470187394 5.40699404761905  10.1431005110733 5.46261160714286  10.0988074957411 5.50613839285714  C 10.0545144804089 5.54966517857143  9.99791784970661 5.57142857142857  9.9290176036343 5.57142857142857  L 6.62180579216354 5.57142857142857  C 6.55290554609124 5.57142857142857  6.49630891538898 5.54966517857143  6.45201590005679 5.50613839285714  C 6.40772288472459 5.46261160714286  6.38557637705849 5.40699404761905  6.38557637705849 5.33928571428571  L 6.38557637705849 3.94642857142857  C 6.38557637705849 3.87872023809524  6.40772288472459 3.82310267857143  6.45201590005679 3.77957589285714  C 6.49630891538898 3.73604910714286  6.55290554609124 3.71428571428571  6.62180579216354 3.71428571428571  L 9.9290176036343 3.71428571428571  C 9.99791784970661 3.71428571428571  10.0545144804089 3.73604910714286  10.0988074957411 3.77957589285714  Z M 8.68143100511073 0.0652901785714282  C 8.72572402044293 0.108816964285714  8.74787052810903 0.164434523809523  8.74787052810903 0.232142857142858  L 8.74787052810903 1.625  C 8.74787052810903 1.69270833333333  8.72572402044293 1.74832589285714  8.68143100511073 1.79185267857143  C 8.63713798977853 1.83537946428571  8.58054135907628 1.85714285714286  8.51164111300398 1.85714285714286  L 6.62180579216354 1.85714285714286  C 6.55290554609124 1.85714285714286  6.49630891538898 1.83537946428571  6.45201590005679 1.79185267857143  C 6.40772288472459 1.74832589285714  6.38557637705849 1.69270833333333  6.38557637705849 1.625  L 6.38557637705849 0.232142857142858  C 6.38557637705849 0.164434523809523  6.40772288472459 0.108816964285714  6.45201590005679 0.0652901785714282  C 6.49630891538898 0.0217633928571422  6.55290554609124 0  6.62180579216354 0  L 8.51164111300398 0  C 8.58054135907628 0  8.63713798977853 0.0217633928571422  8.68143100511073 0.0652901785714282  Z " fill-rule="nonzero" fill="#000000" stroke="none" transform="matrix(1 0 0 1 111 282 )" />
  </g>
</svg>