<?xml version="1.0" encoding="utf-8"?>
<svg version="1.1" xmlns:xlink="http://www.w3.org/1999/xlink" width="12px" height="12px" viewBox="1578 2250  12 12" xmlns="http://www.w3.org/2000/svg">
  <path d="M 1584 2250  C 1587.36 2250  1590 2252.64  1590 2256  C 1590 2259.36  1587.36 2262  1584 2262  C 1580.64 2262  1578 2259.36  1578 2256  C 1578 2252.64  1580.64 2250  1584 2250  Z " fill-rule="nonzero" fill="#ffffff" stroke="none" />
  <path d="M 1584 2250.5  C 1587.08 2250.5  1589.5 2252.92  1589.5 2256  C 1589.5 2259.08  1587.08 2261.5  1584 2261.5  C 1580.92 2261.5  1578.5 2259.08  1578.5 2256  C 1578.5 2252.92  1580.92 2250.5  1584 2250.5  Z " stroke-width="1" stroke="#797979" fill="none" />
  <path d="M 1584 2259  C 1582.32 2259  1581 2257.68  1581 2256  C 1581 2254.32  1582.32 2253  1584 2253  C 1585.68 2253  1587 2254.32  1587 2256  C 1587 2257.68  1585.68 2259  1584 2259  " fill-rule="nonzero" fill="#797979" stroke="none" />
</svg>