<?xml version="1.0" encoding="utf-8"?>
<svg version="1.1" xmlns:xlink="http://www.w3.org/1999/xlink" width="10px" height="296px" preserveAspectRatio="xMidYMin meet" viewBox="1188 1661  8 296" xmlns="http://www.w3.org/2000/svg">
  <path d="M 1191.5 1375  L 1191.5 1665.5  A 0.5 0.5 0 0 0 1192 1666.5 A 0.5 0.5 0 0 1 1192.5 1667 L 1192.5 1956  " stroke-width="1" stroke-dasharray="3,1" stroke="#996600" fill="none" />
  <path d="M 1191.5 1374  A 3 3 0 0 0 1188.5 1377 A 3 3 0 0 0 1191.5 1380 A 3 3 0 0 0 1194.5 1377 A 3 3 0 0 0 1191.5 1374 Z M 1197.14644660941 1950.94644660941  L 1192.5 1955.59289321881  L 1187.85355339059 1950.94644660941  L 1187.14644660941 1951.65355339059  L 1192.14644660941 1956.65355339059  L 1192.5 1957.00710678119  L 1192.85355339059 1956.65355339059  L 1197.85355339059 1951.65355339059  L 1197.14644660941 1950.94644660941  Z " fill-rule="nonzero" fill="#996600" stroke="none" />
</svg>