<?xml version="1.0" encoding="utf-8"?>
<svg version="1.1" xmlns:xlink="http://www.w3.org/1999/xlink" width="12px" height="12px" viewBox="1542 2250  12 12" xmlns="http://www.w3.org/2000/svg">
  <path d="M 1548 2250  C 1551.36 2250  1554 2252.64  1554 2256  C 1554 2259.36  1551.36 2262  1548 2262  C 1544.64 2262  1542 2259.36  1542 2256  C 1542 2252.64  1544.64 2250  1548 2250  Z " fill-rule="nonzero" fill="#f0f0f0" stroke="none" />
  <path d="M 1548 2250.5  C 1551.08 2250.5  1553.5 2252.92  1553.5 2256  C 1553.5 2259.08  1551.08 2261.5  1548 2261.5  C 1544.92 2261.5  1542.5 2259.08  1542.5 2256  C 1542.5 2252.92  1544.92 2250.5  1548 2250.5  Z " stroke-width="1" stroke="#797979" fill="none" />
  <path d="M 1548 2259  C 1546.32 2259  1545 2257.68  1545 2256  C 1545 2254.32  1546.32 2253  1548 2253  C 1549.68 2253  1551 2254.32  1551 2256  C 1551 2257.68  1549.68 2259  1548 2259  " fill-rule="nonzero" fill="#797979" stroke="none" />
</svg>