<?xml version="1.0" encoding="utf-8"?>
<svg version="1.1" xmlns:xlink="http://www.w3.org/1999/xlink" width="18px" height="18px" preserveAspectRatio="xMinYMid meet" viewBox="71 127  18 16" xmlns="http://www.w3.org/2000/svg">
  <path d="M 80.5 137  L 80.5 125  A 5 5 0 0 1 85.5 120.5 L 1305 120.5  A 5 5 0 0 1 1310.5 125.5 L 1310.5 128  A 5 5 0 0 0 1315.5 133.5 L 1327 133.5  " stroke-width="1" stroke-dasharray="3,1" stroke="#996600" fill="none" />
  <path d="M 80.5 132  A 3 3 0 0 0 77.5 135 A 3 3 0 0 0 80.5 138 A 3 3 0 0 0 83.5 135 A 3 3 0 0 0 80.5 132 Z " fill-rule="nonzero" fill="#996600" stroke="none" />
</svg>