<?xml version="1.0" encoding="utf-8"?>
<svg version="1.1" xmlns:xlink="http://www.w3.org/1999/xlink" width="12px" height="12px" viewBox="1543 292  12 12" xmlns="http://www.w3.org/2000/svg">
  <path d="M 1549 292  C 1552.36 292  1555 294.64  1555 298  C 1555 301.36  1552.36 304  1549 304  C 1545.64 304  1543 301.36  1543 298  C 1543 294.64  1545.64 292  1549 292  Z " fill-rule="nonzero" fill="#ffffff" stroke="none" />
  <path d="M 1549 292.5  C 1552.08 292.5  1554.5 294.92  1554.5 298  C 1554.5 301.08  1552.08 303.5  1549 303.5  C 1545.92 303.5  1543.5 301.08  1543.5 298  C 1543.5 294.92  1545.92 292.5  1549 292.5  Z " stroke-width="1" stroke="#797979" fill="none" />
  <path d="M 1549 301  C 1547.32 301  1546 299.68  1546 298  C 1546 296.32  1547.32 295  1549 295  C 1550.68 295  1552 296.32  1552 298  C 1552 299.68  1550.68 301  1549 301  " fill-rule="nonzero" fill="#797979" stroke="none" />
</svg>