<?xml version="1.0" encoding="utf-8"?>
<svg version="1.1" xmlns:xlink="http://www.w3.org/1999/xlink" width="10px" height="15px" preserveAspectRatio="xMidYMin meet" viewBox="266 245  8 15" xmlns="http://www.w3.org/2000/svg">
  <path d="M 270.5 246  L 270.5 250  A 5 5 0 0 0 275.5 255.5 L 1348 255.5  A 5 5 0 0 1 1353.5 260.5 L 1353.5 778  A 5 5 0 0 0 1358.5 783.5 L 1407 783.5  " stroke-width="1" stroke-dasharray="3,1" stroke="#996600" fill="none" />
  <path d="M 270.5 245  A 3 3 0 0 0 267.5 248 A 3 3 0 0 0 270.5 251 A 3 3 0 0 0 273.5 248 A 3 3 0 0 0 270.5 245 Z " fill-rule="nonzero" fill="#996600" stroke="none" />
</svg>