<?xml version="1.0" encoding="utf-8"?>
<svg version="1.1" xmlns:xlink="http://www.w3.org/1999/xlink" width="10px" height="20px" preserveAspectRatio="xMidYMin meet" viewBox="105 75  8 20" xmlns="http://www.w3.org/2000/svg">
  <defs>
    <mask fill="white" id="clip279">
      <path d="M 246.5 65  L 351.5 65  L 351.5 95  L 246.5 95  Z M 100 65  L 499 65  L 499 104  L 100 104  Z " fill-rule="evenodd" />
    </mask>
  </defs>
  <path d="M 109.5 94  L 109.5 85  A 5 5 0 0 1 114.5 80.5 L 485 80.5  A 5 5 0 0 1 490.5 85.5 L 490.5 94  " stroke-width="1" stroke-dasharray="3,1" stroke="#996600" fill="none" mask="url(#clip279)" />
  <path d="M 109.5 89  A 3 3 0 0 0 106.5 92 A 3 3 0 0 0 109.5 95 A 3 3 0 0 0 112.5 92 A 3 3 0 0 0 109.5 89 Z M 495.146446609407 88.9464466094067  L 490.5 93.5928932188134  L 485.853553390593 88.9464466094067  L 485.146446609407 89.6535533905933  L 490.146446609407 94.6535533905933  L 490.5 95.0071067811866  L 490.853553390593 94.6535533905933  L 495.853553390593 89.6535533905933  L 495.146446609407 88.9464466094067  Z " fill-rule="nonzero" fill="#996600" stroke="none" mask="url(#clip279)" />
</svg>