<?xml version="1.0" encoding="utf-8"?>
<svg version="1.1" xmlns:xlink="http://www.w3.org/1999/xlink" width="10px" height="19px" preserveAspectRatio="xMidYMin meet" viewBox="1082 175  8 19" xmlns="http://www.w3.org/2000/svg">
  <defs>
    <mask fill="white" id="clip13">
      <path d="M 948.5 165  L 1025.5 165  L 1025.5 195  L 948.5 195  Z M 878 165  L 1095 165  L 1095 203  L 878 203  Z " fill-rule="evenodd" />
    </mask>
  </defs>
  <path d="M 887.5 193  L 887.5 185  A 5 5 0 0 1 892.5 180.5 L 1081 180.5  A 5 5 0 0 1 1086.5 185.5 L 1086.5 193  " stroke-width="1" stroke-dasharray="3,1" stroke="#996600" fill="none" mask="url(#clip13)" />
  <path d="M 887.5 188  A 3 3 0 0 0 884.5 191 A 3 3 0 0 0 887.5 194 A 3 3 0 0 0 890.5 191 A 3 3 0 0 0 887.5 188 Z M 1091.14644660941 187.946446609407  L 1086.5 192.592893218813  L 1081.85355339059 187.946446609407  L 1081.14644660941 188.653553390593  L 1086.14644660941 193.653553390593  L 1086.5 194.007106781187  L 1086.85355339059 193.653553390593  L 1091.85355339059 188.653553390593  L 1091.14644660941 187.946446609407  Z " fill-rule="nonzero" fill="#996600" stroke="none" mask="url(#clip13)" />
</svg>