<?xml version="1.0" encoding="utf-8"?>
<svg version="1.1" xmlns:xlink="http://www.w3.org/1999/xlink" width="18px" height="18px" preserveAspectRatio="xMinYMid meet" viewBox="1210 438  18 16" xmlns="http://www.w3.org/2000/svg">
  <defs>
    <mask fill="white" id="clip149">
      <path d="M 1072.5 510  L 1149.5 510  L 1149.5 540  L 1072.5 540  Z M 1000 434  L 1228 434  L 1228 608  L 1000 608  Z " fill-rule="evenodd" />
    </mask>
  </defs>
  <path d="M 1219.5 444  L 1219.5 520  A 5 5 0 0 1 1214.5 525.5 L 1008 525.5  A 5 5 0 0 0 1003.5 530.5 L 1003.5 608  " stroke-width="1" stroke-dasharray="3,1" stroke="#996600" fill="none" mask="url(#clip149)" />
  <path d="M 1219.5 443  A 3 3 0 0 0 1216.5 446 A 3 3 0 0 0 1219.5 449 A 3 3 0 0 0 1222.5 446 A 3 3 0 0 0 1219.5 443 Z " fill-rule="nonzero" fill="#996600" stroke="none" mask="url(#clip149)" />
</svg>