<?xml version="1.0" encoding="utf-8"?>
<svg version="1.1" xmlns:xlink="http://www.w3.org/1999/xlink" width="12px" height="12px" viewBox="474 456  12 12" xmlns="http://www.w3.org/2000/svg">
  <path d="M 480 456  C 483.36 456  486 458.64  486 462  C 486 465.36  483.36 468  480 468  C 476.64 468  474 465.36  474 462  C 474 458.64  476.64 456  480 456  Z " fill-rule="nonzero" fill="#ffffff" stroke="none" />
  <path d="M 480 456.5  C 483.08 456.5  485.5 458.92  485.5 462  C 485.5 465.08  483.08 467.5  480 467.5  C 476.92 467.5  474.5 465.08  474.5 462  C 474.5 458.92  476.92 456.5  480 456.5  Z " stroke-width="1" stroke="#797979" fill="none" />
  <path d="M 480 465  C 478.32 465  477 463.68  477 462  C 477 460.32  478.32 459  480 459  C 481.68 459  483 460.32  483 462  C 483 463.68  481.68 465  480 465  " fill-rule="nonzero" fill="#797979" stroke="none" />
</svg>