<?xml version="1.0" encoding="utf-8"?>
<svg version="1.1" xmlns:xlink="http://www.w3.org/1999/xlink" width="12px" height="12px" viewBox="796 417  12 12" xmlns="http://www.w3.org/2000/svg">
  <path d="M 802 417  C 805.36 417  808 419.64  808 423  C 808 426.36  805.36 429  802 429  C 798.64 429  796 426.36  796 423  C 796 419.64  798.64 417  802 417  Z " fill-rule="nonzero" fill="#ffffff" stroke="none" />
  <path d="M 802 417.5  C 805.08 417.5  807.5 419.92  807.5 423  C 807.5 426.08  805.08 428.5  802 428.5  C 798.92 428.5  796.5 426.08  796.5 423  C 796.5 419.92  798.92 417.5  802 417.5  Z " stroke-width="1" stroke="#797979" fill="none" />
  <path d="M 802 426  C 800.32 426  799 424.68  799 423  C 799 421.32  800.32 420  802 420  C 803.68 420  805 421.32  805 423  C 805 424.68  803.68 426  802 426  " fill-rule="nonzero" fill="#797979" stroke="none" />
</svg>