<?xml version="1.0" encoding="utf-8"?>
<svg version="1.1" xmlns:xlink="http://www.w3.org/1999/xlink" width="12px" height="12px" viewBox="1099 417  12 12" xmlns="http://www.w3.org/2000/svg">
  <path d="M 1105 417  C 1108.36 417  1111 419.64  1111 423  C 1111 426.36  1108.36 429  1105 429  C 1101.64 429  1099 426.36  1099 423  C 1099 419.64  1101.64 417  1105 417  Z " fill-rule="nonzero" fill="#ffffff" stroke="none" />
  <path d="M 1105 417.5  C 1108.08 417.5  1110.5 419.92  1110.5 423  C 1110.5 426.08  1108.08 428.5  1105 428.5  C 1101.92 428.5  1099.5 426.08  1099.5 423  C 1099.5 419.92  1101.92 417.5  1105 417.5  Z " stroke-width="1" stroke="#797979" fill="none" />
  <path d="M 1105 426  C 1103.32 426  1102 424.68  1102 423  C 1102 421.32  1103.32 420  1105 420  C 1106.68 420  1108 421.32  1108 423  C 1108 424.68  1106.68 426  1105 426  " fill-rule="nonzero" fill="#797979" stroke="none" />
</svg>