<?xml version="1.0" encoding="utf-8"?>
<svg version="1.1" xmlns:xlink="http://www.w3.org/1999/xlink" width="12px" height="12px" viewBox="1165 417  12 12" xmlns="http://www.w3.org/2000/svg">
  <path d="M 1171 417  C 1174.36 417  1177 419.64  1177 423  C 1177 426.36  1174.36 429  1171 429  C 1167.64 429  1165 426.36  1165 423  C 1165 419.64  1167.64 417  1171 417  Z " fill-rule="nonzero" fill="#f0f0f0" stroke="none" />
  <path d="M 1171 417.5  C 1174.08 417.5  1176.5 419.92  1176.5 423  C 1176.5 426.08  1174.08 428.5  1171 428.5  C 1167.92 428.5  1165.5 426.08  1165.5 423  C 1165.5 419.92  1167.92 417.5  1171 417.5  Z " stroke-width="1" stroke="#797979" fill="none" />
  <path d="M 1171 426  C 1169.32 426  1168 424.68  1168 423  C 1168 421.32  1169.32 420  1171 420  C 1172.68 420  1174 421.32  1174 423  C 1174 424.68  1172.68 426  1171 426  " fill-rule="nonzero" fill="#797979" stroke="none" />
</svg>