<?xml version="1.0" encoding="utf-8"?>
<svg version="1.1" xmlns:xlink="http://www.w3.org/1999/xlink" width="12px" height="12px" viewBox="606 456  12 12" xmlns="http://www.w3.org/2000/svg">
  <path d="M 612 456  C 615.36 456  618 458.64  618 462  C 618 465.36  615.36 468  612 468  C 608.64 468  606 465.36  606 462  C 606 458.64  608.64 456  612 456  Z " fill-rule="nonzero" fill="#f0f0f0" stroke="none" />
  <path d="M 612 456.5  C 615.08 456.5  617.5 458.92  617.5 462  C 617.5 465.08  615.08 467.5  612 467.5  C 608.92 467.5  606.5 465.08  606.5 462  C 606.5 458.92  608.92 456.5  612 456.5  Z " stroke-width="1" stroke="#797979" fill="none" />
  <path d="M 612 465  C 610.32 465  609 463.68  609 462  C 609 460.32  610.32 459  612 459  C 613.68 459  615 460.32  615 462  C 615 463.68  613.68 465  612 465  " fill-rule="nonzero" fill="#797979" stroke="none" />
</svg>