<?xml version="1.0" encoding="utf-8"?>
<svg version="1.1" xmlns:xlink="http://www.w3.org/1999/xlink" width="10px" height="88px" preserveAspectRatio="xMidYMin meet" viewBox="999 520  8 88" xmlns="http://www.w3.org/2000/svg">
  <defs>
    <mask fill="white" id="clip242">
      <path d="M 953.5 510  L 1030.5 510  L 1030.5 540  L 953.5 540  Z M 953.5 434  L 1030.5 434  L 1030.5 608  L 953.5 608  Z " fill-rule="evenodd" />
    </mask>
  </defs>
  <path d="M 980.5 444  L 980.5 520  A 5 5 0 0 0 985.5 525.5 L 998 525.5  A 5 5 0 0 1 1003.5 530.5 L 1003.5 608  " stroke-width="1" stroke-dasharray="3,1" stroke="#996600" fill="none" mask="url(#clip242)" />
  <path d="M 980.5 443  A 3 3 0 0 0 977.5 446 A 3 3 0 0 0 980.5 449 A 3 3 0 0 0 983.5 446 A 3 3 0 0 0 980.5 443 Z " fill-rule="nonzero" fill="#996600" stroke="none" mask="url(#clip242)" />
</svg>