<?xml version="1.0" encoding="utf-8"?>
<svg version="1.1" xmlns:xlink="http://www.w3.org/1999/xlink" width="12px" height="12px" viewBox="1041 456  12 12" xmlns="http://www.w3.org/2000/svg">
  <path d="M 1047 456  C 1050.36 456  1053 458.64  1053 462  C 1053 465.36  1050.36 468  1047 468  C 1043.64 468  1041 465.36  1041 462  C 1041 458.64  1043.64 456  1047 456  Z " fill-rule="nonzero" fill="#ffffff" stroke="none" />
  <path d="M 1047 456.5  C 1050.08 456.5  1052.5 458.92  1052.5 462  C 1052.5 465.08  1050.08 467.5  1047 467.5  C 1043.92 467.5  1041.5 465.08  1041.5 462  C 1041.5 458.92  1043.92 456.5  1047 456.5  Z " stroke-width="1" stroke="#797979" fill="none" />
  <path d="M 1047 465  C 1045.32 465  1044 463.68  1044 462  C 1044 460.32  1045.32 459  1047 459  C 1048.68 459  1050 460.32  1050 462  C 1050 463.68  1048.68 465  1047 465  " fill-rule="nonzero" fill="#797979" stroke="none" />
</svg>