<?xml version="1.0" encoding="utf-8"?>
<svg version="1.1" xmlns:xlink="http://www.w3.org/1999/xlink" width="12px" height="12px" viewBox="1165 456  12 12" xmlns="http://www.w3.org/2000/svg">
  <path d="M 1171 456  C 1174.36 456  1177 458.64  1177 462  C 1177 465.36  1174.36 468  1171 468  C 1167.64 468  1165 465.36  1165 462  C 1165 458.64  1167.64 456  1171 456  Z " fill-rule="nonzero" fill="#f0f0f0" stroke="none" />
  <path d="M 1171 456.5  C 1174.08 456.5  1176.5 458.92  1176.5 462  C 1176.5 465.08  1174.08 467.5  1171 467.5  C 1167.92 467.5  1165.5 465.08  1165.5 462  C 1165.5 458.92  1167.92 456.5  1171 456.5  Z " stroke-width="1" stroke="#797979" fill="none" />
  <path d="M 1171 465  C 1169.32 465  1168 463.68  1168 462  C 1168 460.32  1169.32 459  1171 459  C 1172.68 459  1174 460.32  1174 462  C 1174 463.68  1172.68 465  1171 465  " fill-rule="nonzero" fill="#797979" stroke="none" />
</svg>