<?xml version="1.0" encoding="utf-8"?>
<svg version="1.1" xmlns:xlink="http://www.w3.org/1999/xlink" width="12px" height="12px" viewBox="1231 456  12 12" xmlns="http://www.w3.org/2000/svg">
  <path d="M 1237 456  C 1240.36 456  1243 458.64  1243 462  C 1243 465.36  1240.36 468  1237 468  C 1233.64 468  1231 465.36  1231 462  C 1231 458.64  1233.64 456  1237 456  Z " fill-rule="nonzero" fill="#ffffff" stroke="none" />
  <path d="M 1237 456.5  C 1240.08 456.5  1242.5 458.92  1242.5 462  C 1242.5 465.08  1240.08 467.5  1237 467.5  C 1233.92 467.5  1231.5 465.08  1231.5 462  C 1231.5 458.92  1233.92 456.5  1237 456.5  Z " stroke-width="1" stroke="#797979" fill="none" />
  <path d="M 1237 465  C 1235.32 465  1234 463.68  1234 462  C 1234 460.32  1235.32 459  1237 459  C 1238.68 459  1240 460.32  1240 462  C 1240 463.68  1238.68 465  1237 465  " fill-rule="nonzero" fill="#797979" stroke="none" />
</svg>