<?xml version="1.0" encoding="utf-8"?>
<svg version="1.1" xmlns:xlink="http://www.w3.org/1999/xlink" width="12px" height="12px" viewBox="664 456  12 12" xmlns="http://www.w3.org/2000/svg">
  <path d="M 670 456  C 673.36 456  676 458.64  676 462  C 676 465.36  673.36 468  670 468  C 666.64 468  664 465.36  664 462  C 664 458.64  666.64 456  670 456  Z " fill-rule="nonzero" fill="#f0f0f0" stroke="none" />
  <path d="M 670 456.5  C 673.08 456.5  675.5 458.92  675.5 462  C 675.5 465.08  673.08 467.5  670 467.5  C 666.92 467.5  664.5 465.08  664.5 462  C 664.5 458.92  666.92 456.5  670 456.5  Z " stroke-width="1" stroke="#797979" fill="none" />
  <path d="M 670 465  C 668.32 465  667 463.68  667 462  C 667 460.32  668.32 459  670 459  C 671.68 459  673 460.32  673 462  C 673 463.68  671.68 465  670 465  " fill-rule="nonzero" fill="#797979" stroke="none" />
</svg>