<?xml version="1.0" encoding="utf-8"?>
<svg version="1.1" xmlns:xlink="http://www.w3.org/1999/xlink" width="12px" height="12px" viewBox="1099 456  12 12" xmlns="http://www.w3.org/2000/svg">
  <path d="M 1105 456  C 1108.36 456  1111 458.64  1111 462  C 1111 465.36  1108.36 468  1105 468  C 1101.64 468  1099 465.36  1099 462  C 1099 458.64  1101.64 456  1105 456  Z " fill-rule="nonzero" fill="#f0f0f0" stroke="none" />
  <path d="M 1105 456.5  C 1108.08 456.5  1110.5 458.92  1110.5 462  C 1110.5 465.08  1108.08 467.5  1105 467.5  C 1101.92 467.5  1099.5 465.08  1099.5 462  C 1099.5 458.92  1101.92 456.5  1105 456.5  Z " stroke-width="1" stroke="#797979" fill="none" />
  <path d="M 1105 465  C 1103.32 465  1102 463.68  1102 462  C 1102 460.32  1103.32 459  1105 459  C 1106.68 459  1108 460.32  1108 462  C 1108 463.68  1106.68 465  1105 465  " fill-rule="nonzero" fill="#797979" stroke="none" />
</svg>