<?xml version="1.0" encoding="utf-8"?>
<svg version="1.1" xmlns:xlink="http://www.w3.org/1999/xlink" width="12px" height="12px" viewBox="730 456  12 12" xmlns="http://www.w3.org/2000/svg">
  <path d="M 736 456  C 739.36 456  742 458.64  742 462  C 742 465.36  739.36 468  736 468  C 732.64 468  730 465.36  730 462  C 730 458.64  732.64 456  736 456  Z " fill-rule="nonzero" fill="#ffffff" stroke="none" />
  <path d="M 736 456.5  C 739.08 456.5  741.5 458.92  741.5 462  C 741.5 465.08  739.08 467.5  736 467.5  C 732.92 467.5  730.5 465.08  730.5 462  C 730.5 458.92  732.92 456.5  736 456.5  Z " stroke-width="1" stroke="#797979" fill="none" />
  <path d="M 736 465  C 734.32 465  733 463.68  733 462  C 733 460.32  734.32 459  736 459  C 737.68 459  739 460.32  739 462  C 739 463.68  737.68 465  736 465  " fill-rule="nonzero" fill="#797979" stroke="none" />
</svg>