<?xml version="1.0" encoding="utf-8"?>
<svg version="1.1" xmlns:xlink="http://www.w3.org/1999/xlink" width="12px" height="12px" viewBox="2420 677  12 12" xmlns="http://www.w3.org/2000/svg">
  <path d="M 2426 677  C 2429.36 677  2432 679.64  2432 683  C 2432 686.36  2429.36 689  2426 689  C 2422.64 689  2420 686.36  2420 683  C 2420 679.64  2422.64 677  2426 677  Z " fill-rule="nonzero" fill="#ffffff" stroke="none" />
  <path d="M 2426 677.5  C 2429.08 677.5  2431.5 679.92  2431.5 683  C 2431.5 686.08  2429.08 688.5  2426 688.5  C 2422.92 688.5  2420.5 686.08  2420.5 683  C 2420.5 679.92  2422.92 677.5  2426 677.5  Z " stroke-width="1" stroke="#797979" fill="none" />
  <path d="M 2426 686  C 2424.32 686  2423 684.68  2423 683  C 2423 681.32  2424.32 680  2426 680  C 2427.68 680  2429 681.32  2429 683  C 2429 684.68  2427.68 686  2426 686  " fill-rule="nonzero" fill="#797979" stroke="none" />
</svg>