<?xml version="1.0" encoding="utf-8"?>
<svg version="1.1" xmlns:xlink="http://www.w3.org/1999/xlink" width="12px" height="12px" viewBox="2457 677  12 12" xmlns="http://www.w3.org/2000/svg">
  <path d="M 2463 677  C 2466.36 677  2469 679.64  2469 683  C 2469 686.36  2466.36 689  2463 689  C 2459.64 689  2457 686.36  2457 683  C 2457 679.64  2459.64 677  2463 677  Z " fill-rule="nonzero" fill="#f0f0f0" stroke="none" />
  <path d="M 2463 677.5  C 2466.08 677.5  2468.5 679.92  2468.5 683  C 2468.5 686.08  2466.08 688.5  2463 688.5  C 2459.92 688.5  2457.5 686.08  2457.5 683  C 2457.5 679.92  2459.92 677.5  2463 677.5  Z " stroke-width="1" stroke="#797979" fill="none" />
  <path d="M 2463 686  C 2461.32 686  2460 684.68  2460 683  C 2460 681.32  2461.32 680  2463 680  C 2464.68 680  2466 681.32  2466 683  C 2466 684.68  2464.68 686  2463 686  " fill-rule="nonzero" fill="#797979" stroke="none" />
</svg>