<?xml version="1.0" encoding="utf-8"?>
<svg version="1.1" xmlns:xlink="http://www.w3.org/1999/xlink" width="12px" height="12px" viewBox="2457 716  12 12" xmlns="http://www.w3.org/2000/svg">
  <path d="M 2463 716  C 2466.36 716  2469 718.64  2469 722  C 2469 725.36  2466.36 728  2463 728  C 2459.64 728  2457 725.36  2457 722  C 2457 718.64  2459.64 716  2463 716  Z " fill-rule="nonzero" fill="#f0f0f0" stroke="none" />
  <path d="M 2463 716.5  C 2466.08 716.5  2468.5 718.92  2468.5 722  C 2468.5 725.08  2466.08 727.5  2463 727.5  C 2459.92 727.5  2457.5 725.08  2457.5 722  C 2457.5 718.92  2459.92 716.5  2463 716.5  Z " stroke-width="1" stroke="#797979" fill="none" />
  <path d="M 2463 725  C 2461.32 725  2460 723.68  2460 722  C 2460 720.32  2461.32 719  2463 719  C 2464.68 719  2466 720.32  2466 722  C 2466 723.68  2464.68 725  2463 725  " fill-rule="nonzero" fill="#797979" stroke="none" />
</svg>