<?xml version="1.0" encoding="utf-8"?>
<svg version="1.1" xmlns:xlink="http://www.w3.org/1999/xlink" width="12px" height="12px" viewBox="2548 716  12 12" xmlns="http://www.w3.org/2000/svg">
  <path d="M 2554 716  C 2557.36 716  2560 718.64  2560 722  C 2560 725.36  2557.36 728  2554 728  C 2550.64 728  2548 725.36  2548 722  C 2548 718.64  2550.64 716  2554 716  Z " fill-rule="nonzero" fill="#ffffff" stroke="none" />
  <path d="M 2554 716.5  C 2557.08 716.5  2559.5 718.92  2559.5 722  C 2559.5 725.08  2557.08 727.5  2554 727.5  C 2550.92 727.5  2548.5 725.08  2548.5 722  C 2548.5 718.92  2550.92 716.5  2554 716.5  Z " stroke-width="1" stroke="#797979" fill="none" />
  <path d="M 2554 725  C 2552.32 725  2551 723.68  2551 722  C 2551 720.32  2552.32 719  2554 719  C 2555.68 719  2557 720.32  2557 722  C 2557 723.68  2555.68 725  2554 725  " fill-rule="nonzero" fill="#797979" stroke="none" />
</svg>