<?xml version="1.0" encoding="utf-8"?>
<svg version="1.1" xmlns:xlink="http://www.w3.org/1999/xlink" width="12px" height="12px" viewBox="2585 716  12 12" xmlns="http://www.w3.org/2000/svg">
  <path d="M 2591 716  C 2594.36 716  2597 718.64  2597 722  C 2597 725.36  2594.36 728  2591 728  C 2587.64 728  2585 725.36  2585 722  C 2585 718.64  2587.64 716  2591 716  Z " fill-rule="nonzero" fill="#ffffff" stroke="none" />
  <path d="M 2591 716.5  C 2594.08 716.5  2596.5 718.92  2596.5 722  C 2596.5 725.08  2594.08 727.5  2591 727.5  C 2587.92 727.5  2585.5 725.08  2585.5 722  C 2585.5 718.92  2587.92 716.5  2591 716.5  Z " stroke-width="1" stroke="#797979" fill="none" />
  <path d="M 2591 725  C 2589.32 725  2588 723.68  2588 722  C 2588 720.32  2589.32 719  2591 719  C 2592.68 719  2594 720.32  2594 722  C 2594 723.68  2592.68 725  2591 725  " fill-rule="nonzero" fill="#797979" stroke="none" />
</svg>