<?xml version="1.0" encoding="utf-8"?>
<svg version="1.1" xmlns:xlink="http://www.w3.org/1999/xlink" width="12px" height="12px" viewBox="586 362  12 12" xmlns="http://www.w3.org/2000/svg">
  <path d="M 592 362  C 595.36 362  598 364.64  598 368  C 598 371.36  595.36 374  592 374  C 588.64 374  586 371.36  586 368  C 586 364.64  588.64 362  592 362  Z " fill-rule="nonzero" fill="#ffffff" stroke="none" />
  <path d="M 592 362.5  C 595.08 362.5  597.5 364.92  597.5 368  C 597.5 371.08  595.08 373.5  592 373.5  C 588.92 373.5  586.5 371.08  586.5 368  C 586.5 364.92  588.92 362.5  592 362.5  Z " stroke-width="1" stroke="#797979" fill="none" />
  <path d="M 592 371  C 590.32 371  589 369.68  589 368  C 589 366.32  590.32 365  592 365  C 593.68 365  595 366.32  595 368  C 595 369.68  593.68 371  592 371  " fill-rule="nonzero" fill="#797979" stroke="none" />
</svg>