<?xml version="1.0" encoding="utf-8"?>
<svg version="1.1" xmlns:xlink="http://www.w3.org/1999/xlink" width="12px" height="12px" viewBox="623 362  12 12" xmlns="http://www.w3.org/2000/svg">
  <path d="M 629 362  C 632.36 362  635 364.64  635 368  C 635 371.36  632.36 374  629 374  C 625.64 374  623 371.36  623 368  C 623 364.64  625.64 362  629 362  Z " fill-rule="nonzero" fill="#f0f0f0" stroke="none" />
  <path d="M 629 362.5  C 632.08 362.5  634.5 364.92  634.5 368  C 634.5 371.08  632.08 373.5  629 373.5  C 625.92 373.5  623.5 371.08  623.5 368  C 623.5 364.92  625.92 362.5  629 362.5  Z " stroke-width="1" stroke="#797979" fill="none" />
  <path d="M 629 371  C 627.32 371  626 369.68  626 368  C 626 366.32  627.32 365  629 365  C 630.68 365  632 366.32  632 368  C 632 369.68  630.68 371  629 371  " fill-rule="nonzero" fill="#797979" stroke="none" />
</svg>