<?xml version="1.0" encoding="utf-8"?>
<svg version="1.1" xmlns:xlink="http://www.w3.org/1999/xlink" width="12px" height="12px" viewBox="2548 677  12 12" xmlns="http://www.w3.org/2000/svg">
  <path d="M 2554 677  C 2557.36 677  2560 679.64  2560 683  C 2560 686.36  2557.36 689  2554 689  C 2550.64 689  2548 686.36  2548 683  C 2548 679.64  2550.64 677  2554 677  Z " fill-rule="nonzero" fill="#f0f0f0" stroke="none" />
  <path d="M 2554 677.5  C 2557.08 677.5  2559.5 679.92  2559.5 683  C 2559.5 686.08  2557.08 688.5  2554 688.5  C 2550.92 688.5  2548.5 686.08  2548.5 683  C 2548.5 679.92  2550.92 677.5  2554 677.5  Z " stroke-width="1" stroke="#797979" fill="none" />
  <path d="M 2554 686  C 2552.32 686  2551 684.68  2551 683  C 2551 681.32  2552.32 680  2554 680  C 2555.68 680  2557 681.32  2557 683  C 2557 684.68  2555.68 686  2554 686  " fill-rule="nonzero" fill="#797979" stroke="none" />
</svg>