<?xml version="1.0" encoding="utf-8"?>
<svg version="1.1" xmlns:xlink="http://www.w3.org/1999/xlink" width="12px" height="12px" viewBox="2420 716  12 12" xmlns="http://www.w3.org/2000/svg">
  <path d="M 2426 716  C 2429.36 716  2432 718.64  2432 722  C 2432 725.36  2429.36 728  2426 728  C 2422.64 728  2420 725.36  2420 722  C 2420 718.64  2422.64 716  2426 716  Z " fill-rule="nonzero" fill="#ffffff" stroke="none" />
  <path d="M 2426 716.5  C 2429.08 716.5  2431.5 718.92  2431.5 722  C 2431.5 725.08  2429.08 727.5  2426 727.5  C 2422.92 727.5  2420.5 725.08  2420.5 722  C 2420.5 718.92  2422.92 716.5  2426 716.5  Z " stroke-width="1" stroke="#797979" fill="none" />
  <path d="M 2426 725  C 2424.32 725  2423 723.68  2423 722  C 2423 720.32  2424.32 719  2426 719  C 2427.68 719  2429 720.32  2429 722  C 2429 723.68  2427.68 725  2426 725  " fill-rule="nonzero" fill="#797979" stroke="none" />
</svg>