<?xml version="1.0" encoding="utf-8"?>
<svg version="1.1" xmlns:xlink="http://www.w3.org/1999/xlink" width="12px" height="12px" viewBox="456 362  12 12" xmlns="http://www.w3.org/2000/svg">
  <path d="M 462 362  C 465.36 362  468 364.64  468 368  C 468 371.36  465.36 374  462 374  C 458.64 374  456 371.36  456 368  C 456 364.64  458.64 362  462 362  Z " fill-rule="nonzero" fill="#ffffff" stroke="none" />
  <path d="M 462 362.5  C 465.08 362.5  467.5 364.92  467.5 368  C 467.5 371.08  465.08 373.5  462 373.5  C 458.92 373.5  456.5 371.08  456.5 368  C 456.5 364.92  458.92 362.5  462 362.5  Z " stroke-width="1" stroke="#797979" fill="none" />
  <path d="M 462 371  C 460.32 371  459 369.68  459 368  C 459 366.32  460.32 365  462 365  C 463.68 365  465 366.32  465 368  C 465 369.68  463.68 371  462 371  " fill-rule="nonzero" fill="#797979" stroke="none" />
</svg>