<?xml version="1.0" encoding="utf-8"?>
<svg version="1.1" xmlns:xlink="http://www.w3.org/1999/xlink" width="12px" height="12px" viewBox="606 417  12 12" xmlns="http://www.w3.org/2000/svg">
  <path d="M 612 417  C 615.36 417  618 419.64  618 423  C 618 426.36  615.36 429  612 429  C 608.64 429  606 426.36  606 423  C 606 419.64  608.64 417  612 417  Z " fill-rule="nonzero" fill="#f0f0f0" stroke="none" />
  <path d="M 612 417.5  C 615.08 417.5  617.5 419.92  617.5 423  C 617.5 426.08  615.08 428.5  612 428.5  C 608.92 428.5  606.5 426.08  606.5 423  C 606.5 419.92  608.92 417.5  612 417.5  Z " stroke-width="1" stroke="#797979" fill="none" />
  <path d="M 612 426  C 610.32 426  609 424.68  609 423  C 609 421.32  610.32 420  612 420  C 613.68 420  615 421.32  615 423  C 615 424.68  613.68 426  612 426  " fill-rule="nonzero" fill="#797979" stroke="none" />
</svg>